<?xml version="1.0" standalone="no"?>
<!DOCTYPE svg PUBLIC "-//W3C//DTD SVG 20010904//EN"
 "http://www.w3.org/TR/2001/REC-SVG-20010904/DTD/svg10.dtd">
<svg version="1.0" xmlns="http://www.w3.org/2000/svg"
 width="512.000000pt" height="512.000000pt" viewBox="0 0 512.000000 512.000000"
 preserveAspectRatio="xMidYMid meet">
<metadata>
Created by potrace 1.11, written by Peter Selinger 2001-2013
</metadata>
<g transform="translate(0.000000,512.000000) scale(0.100000,-0.100000)"
fill="#000000" stroke="none">
<path d="M0 2560 l0 -2560 2560 0 2560 0 0 2560 0 2560 -2560 0 -2560 0 0
-2560z m2433 2059 c57 -19 121 -80 147 -141 44 -103 49 -172 50 -663 0 -253 5
-512 10 -575 12 -131 42 -272 75 -345 34 -77 110 -170 181 -223 64 -47 65 -47
62 -92 -3 -41 -5 -45 -38 -54 -46 -13 -127 -96 -166 -171 -18 -33 -44 -97 -58
-143 -55 -177 -58 -214 -66 -812 -6 -478 -9 -563 -24 -615 -33 -116 -95 -185
-192 -213 -23 -7 -105 -12 -188 -12 l-146 0 0 45 0 45 135 0 c188 0 244 26
284 135 35 93 41 192 41 658 0 249 5 493 10 542 31 280 128 486 272 583 l38
25 -54 38 c-101 72 -183 216 -230 404 -28 113 -36 267 -36 719 0 561 -12 655
-89 736 -47 50 -89 60 -243 60 l-128 0 0 46 0 46 158 -5 c91 -2 173 -10 195
-18z"/>
</g>
</svg>
